<svg xmlns="http://www.w3.org/2000/svg" viewBox="0 0 876 220.63"><defs><style>.cls-1{font-size:184.93px;font-family:Ubuntu-Bold, Ubuntu;font-weight:700;}.cls-1,.cls-7{fill:#00aa95;}.cls-2{letter-spacing:0.09em;}.cls-3{letter-spacing:0.08em;}.cls-4{letter-spacing:0.06em;}.cls-5,.cls-6{fill:#a5e887;}.cls-5{letter-spacing:0.09em;}.cls-8{fill:#00cc76;}</style></defs><title>Asset 1</title><g id="Layer_2" data-name="Layer 2"><g id="Layer_1-2" data-name="Layer 1"><text class="cls-1" transform="translate(0 179.76)"><tspan class="cls-2">erig</tspan><tspan class="cls-3" x="415.9" y="0">r</tspan><tspan class="cls-4" x="508.74" y="0">o</tspan><tspan class="cls-5" x="632.08" y="0">.i</tspan><tspan class="cls-6" x="764.3" y="0">d</tspan></text><path class="cls-7" d="M229.68,71.62,222.48,54a30.5,30.5,0,0,1,10.24-36.16A184.73,184.73,0,0,0,252.35,1.51L253.91,0,257,4.69a58.46,58.46,0,0,1,8.18,17.94Z"/><path class="cls-8" d="M283.43,23.27l-.76-5.58c-6.25,12.5-20.64,18.44-29.2,26.8a217.6,217.6,0,0,0-23.79,27.13l8.29.52c36.84,2.31,49.12-21.89,45.46-48.87Z"/><path class="cls-6" d="M282.67,17.69l-2.06.68c-5.07,1.67-10.22,3.07-15.42,4.26h0q-4.67,1.05-9.36,1.9a30.48,30.48,0,0,0-25,28.09l-1.19,19S265.49,52,282.67,17.69Z"/></g></g></svg>