<svg xmlns="http://www.w3.org/2000/svg" viewBox="0 0 876 221.41"><defs><style>.cls-1{font-size:184.93px;font-family:Ubuntu-Bold, Ubuntu;font-weight:700;}.cls-1,.cls-6{fill:#fff;}.cls-2{letter-spacing:0.09em;}.cls-3{letter-spacing:0.08em;}.cls-4{letter-spacing:0.06em;}.cls-5{letter-spacing:0.09em;}.cls-6{stroke:#000;stroke-miterlimit:10;}</style></defs><title>Asset 2</title><g id="Layer_2" data-name="Layer 2"><g id="Layer_1-2" data-name="Layer 1"><text class="cls-1" transform="translate(0 180.54)"><tspan class="cls-2">erig</tspan><tspan class="cls-3" x="415.9" y="0">r</tspan><tspan class="cls-4" x="508.74" y="0">o</tspan><tspan class="cls-5" x="632.08" y="0">.i</tspan><tspan x="764.3" y="0">d</tspan></text><path class="cls-6" d="M229.68,72.4l-7.2-17.62a30.5,30.5,0,0,1,10.24-36.16A183.62,183.62,0,0,0,252.35,2.28l1.56-1.5L257,5.47a58.72,58.72,0,0,1,8.17,17.93Z"/><path class="cls-6" d="M283.43,24l-.76-5.57C276.42,31,262,36.91,253.47,45.26A217.21,217.21,0,0,0,229.68,72.4l8.29.52C274.81,75.22,287.09,51,283.43,24Z"/><path class="cls-6" d="M282.67,18.47l-2.06.68c-5.07,1.67-10.22,3.07-15.42,4.25h0c-3.11.71-6.23,1.34-9.36,1.91a30.48,30.48,0,0,0-25,28.09l-1.19,19S265.49,52.81,282.67,18.47Z"/></g></g></svg>